<?xml version="1.0" encoding="UTF-8"?> <svg xmlns="http://www.w3.org/2000/svg" width="30" height="30" viewBox="0 0 30 30" fill="none"><path fill-rule="evenodd" clip-rule="evenodd" d="M5 0C2.23858 0 0 2.23858 0 5V25C0 27.7614 2.23858 30 5 30H25C27.7614 30 30 27.7614 30 25V5C30 2.23858 27.7614 0 25 0H5ZM12.75 6.25C10.8859 6.25 9.25 7.63941 9.25 9.5C9.25 10.5294 9.75074 11.4146 10.5138 12C9.75074 12.5854 9.25 13.4706 9.25 14.5C9.25 15.5294 9.75074 16.4146 10.5138 17C9.75074 17.5854 9.25 18.4706 9.25 19.5C9.25 21.3606 10.8859 22.75 12.75 22.75C14.6142 22.75 16.25 21.3606 16.25 19.5V17.1662C16.8254 17.5371 17.5202 17.75 18.25 17.75C20.1142 17.75 21.75 16.3606 21.75 14.5C21.75 13.4706 21.2493 12.5854 20.4862 12C21.2493 11.4146 21.75 10.5294 21.75 9.5C21.75 7.63942 20.1142 6.25 18.25 6.25H15.5H12.75ZM10.75 14.5C10.75 13.5991 11.5766 12.75 12.75 12.75H14.75V14.5V16.25H12.75C11.5766 16.25 10.75 15.4009 10.75 14.5ZM12.75 11.25H14.75V7.75H12.75C11.5766 7.75 10.75 8.59917 10.75 9.5C10.75 10.4008 11.5766 11.25 12.75 11.25ZM16.25 14.5C16.25 13.5991 17.0765 12.75 18.25 12.75C19.4235 12.75 20.25 13.5991 20.25 14.5C20.25 15.4009 19.4235 16.25 18.25 16.25C17.0765 16.25 16.25 15.4009 16.25 14.5ZM16.25 7.75V11.25H18.25C19.4235 11.25 20.25 10.4008 20.25 9.5C20.25 8.59916 19.4235 7.75 18.25 7.75H16.25ZM12.75 17.75H14.75V19.5C14.75 20.4009 13.9235 21.25 12.75 21.25C11.5766 21.25 10.75 20.4009 10.75 19.5C10.75 18.5991 11.5766 17.75 12.75 17.75Z" fill="white"></path></svg> 